<svg xmlns="http://www.w3.org/2000/svg" xmlns:xlink="http://www.w3.org/1999/xlink" version="1.1" width="256" height="256" viewBox="0 0 256 256" xml:space="preserve">

<defs>
</defs>
<g style="fill: none; fill-rule: nonzero; stroke: none; stroke-width: 0; stroke-linecap: butt; stroke-linejoin: miter; stroke-dasharray: none; stroke-miterlimit: 10; opacity: 1" transform="matrix(2.8,0,0,2.8,1.4,1.4)" >
	<path d="M 85.1 79.9 l -8.5 -4.9 l -8.5 -4.9 c -0.9 -0.5 -2.1 0.1 -2.1 1.2 v 6.2 c -13.9 -1.7 -24.8 -13.6 -24.8 -28 v -12.1 c 0 -18.8 -14.9 -34.2 -33.5 -35 C 6.9 2.3 6.2 2.9 6.2 3.8 v 3.9 c 0 0.8 0.6 1.4 1.4 1.5 C 22.5 9.9 34.4 22.2 34.4 37.3 v 12.1 c 0 18.2 13.9 33.2 31.6 34.9 v 6.6 c 0 1.1 1.1 1.7 2.1 1.2 l 8.5 -4.9 l 8.5 -4.9 C 86 81.7 86 80.4 85.1 79.9 z" style="fill: #ffffff; fill-rule: nonzero; stroke: none; stroke-width: 1; stroke-linecap: butt; stroke-linejoin: miter; stroke-dasharray: none; stroke-miterlimit: 10; opacity: 1" transform="matrix(0.8,0,0,0.8,8.3,9.6)" stroke-linecap="round" />
</g>
    <polyline points="209,227 26,13" fill="rgb(255, 255, 255)"/>
</svg>